<?xml version="1.0" encoding="utf-8"?>
<svg width="700pt" height="700pt" version="1.1" viewBox="0 0 700 700" xmlns="http://www.w3.org/2000/svg">
  <path d="M 279.997 280 L 163.331 536.667 L 419.997 420 L 536.664 163.333 L 279.997 280 Z M 257.308 442.681 L 315.235 315.233 L 384.756 384.754 L 257.308 442.681 Z" style="" transform="matrix(0.707107, -0.707107, 0.707107, 0.707107, -144.975471, 349.99806)"/>
  <path d="M 653.331 350 C 653.331 517.264 517.257 653.333 349.997 653.333 C 182.733 653.333 46.664 517.26 46.664 350 C 46.664 182.736 182.737 46.667 349.997 46.667 C 517.261 46.667 653.331 182.735 653.331 350 M 700 350 C 700 156.694 543.306 0 350 0 C 156.694 0 0 156.694 0 350 C 0 543.306 156.694 700 350 700 C 543.306 700 700 543.306 700 350 Z" style=""/>
</svg>