<?xml version="1.0" encoding="utf-8"?>
<svg width="700pt" height="700pt" version="1.1" viewBox="0 0 700 700" xmlns="http://www.w3.org/2000/svg">
  <path d="M 392.553 699.993 C 391.855 699.993 391.079 699.993 390.293 699.914 C 380.328 698.953 372.079 691.517 369.742 681.519 L 303.279 388.893 L 18.214 323.308 C 8.25 320.987 0.935 312.352 0.083 301.953 C -0.774 291.557 5.065 281.717 14.48 277.716 L 667.303 1.804 C 676.173 -1.953 686.291 0.289 692.913 7.319 C 699.528 14.361 701.398 24.837 697.505 33.789 L 413.912 685.843 C 410.096 694.559 401.693 700 392.58 700 L 392.553 699.993 Z M 100.703 293.07 L 327.808 345.291 C 336.525 347.287 343.371 354.248 345.472 363.288 L 399.485 601.219 L 630.943 69.054 L 100.703 293.07 Z" style=""/>
</svg>