<?xml version="1.0" encoding="UTF-8"?>
<svg width="700pt" height="700pt" version="1.1" viewBox="0 0 700 700" xmlns="http://www.w3.org/2000/svg">
 <path d="m536.67 163.33v140c0 6.1914-2.4609 12.125-6.8359 16.5s-10.309 6.8359-16.5 6.8359h-293.77l42.699 42.699c4.3477 4.3711 6.7852 10.285 6.7852 16.449 0 6.1641-2.4375 12.078-6.7852 16.449-4.3711 4.3477-10.285 6.7852-16.449 6.7852-6.1641 0-12.078-2.4375-16.449-6.7852l-82.602-82.367c-2.125-2.2188-3.7891-4.8359-4.8984-7.6992-2.3359-5.6797-2.3359-12.051 0-17.734 1.1094-2.8633 2.7734-5.4805 4.8984-7.6992l82.602-82.367c6.0078-5.1445 14.211-6.8945 21.793-4.6523 7.5859 2.2422 13.516 8.1758 15.758 15.758 2.2461 7.5859 0.49219 15.789-4.6523 21.797l-42.699 42.699h270.43v-116.67c0-8.3359 4.4492-16.039 11.668-20.207s16.113-4.168 23.332 0 11.668 11.871 11.668 20.207z"/>
</svg>
