<?xml version="1.0" encoding="utf-8"?>
<svg fill="#ffffff" viewBox="0 0 32 32" xmlns="http://www.w3.org/2000/svg">
  <path d="M 26 13.97 L 26 26 C 26 27.654 24.654 29 23 29 L 21 29 C 19.346 29 18 27.654 18 26 L 18 24.019 C 17.393 24.18 16.846 24.244 16.38 24.244 C 16.247 24.244 16.12 24.24 16 24.23 L 16 26 C 16 27.654 14.654 29 13 29 L 11 29 C 9.346 29 8 27.654 8 26 L 8 24 L 7 24 C 5.346 24 4 22.654 4 21 L 4 13 C 4 11.346 5.346 10 7 10 L 8 10 C 8 6.14 11.14 3 15 3 L 19 3 C 21.96 3 24.488 4.848 25.511 7.448 C 26.463 8.385 27 9.664 27 11 C 27 12.116 26.62 13.136 26 13.97 Z M 22 8 L 18 8 C 16.346 8 15 9.346 15 11 C 15 12.654 16.346 14 18 14 L 22 14 C 23.654 14 25 12.654 25 11 C 25 9.346 23.654 8 22 8 Z M 8 22 L 8 12 L 7 12 C 6.449 12 6 12.449 6 13 L 6 21 C 6 21.551 6.449 22 7 22 Z M 24 15.576 C 23.386 15.846 22.712 16 22 16 L 18 16 C 15.243 16 13 13.757 13 11 C 13 8.243 15.243 6 18 6 L 21.982 6 C 21.149 5.376 20.12 5 19 5 L 15 5 C 12.243 5 10 7.243 10 10 L 10 26 C 10 26.551 10.449 27 11 27 L 13 27 C 13.551 27 14 26.551 14 26 L 14 23 C 14 22.99 14.006 22.98 14.006 22.97 C 14.008 22.903 14.03 22.839 14.046 22.773 C 14.062 22.708 14.07 22.643 14.097 22.583 C 14.102 22.573 14.101 22.562 14.106 22.552 C 14.129 22.505 14.169 22.474 14.199 22.432 C 14.239 22.376 14.272 22.319 14.322 22.273 C 14.374 22.225 14.434 22.193 14.494 22.158 C 14.543 22.128 14.588 22.093 14.642 22.072 C 14.717 22.044 14.795 22.035 14.875 22.025 C 14.918 22.02 14.956 22 15 22 C 15.008 22 15.014 22.004 15.022 22.004 C 15.092 22.006 15.16 22.03 15.23 22.046 C 15.29 22.061 15.354 22.067 15.41 22.093 C 15.417 22.096 15.425 22.095 15.432 22.098 C 15.525 22.141 17.05 22.766 19.445 21.168 C 19.742 20.97 20.123 20.945 20.443 21.103 C 21.133 21.444 21.195 22.405 20.555 22.832 C 20.366 22.958 20.182 23.069 20 23.175 L 20 26 C 20 26.551 20.449 27 21 27 L 23 27 C 23.551 27 24 26.551 24 26 Z"/>
</svg>