<?xml version="1.0" encoding="UTF-8"?>
<svg fill="#ffffff" width="700pt" height="700pt" version="1.1" viewBox="60 20 600 600"
  xmlns="http://www.w3.org/2000/svg">
  <path
    d="m328.94 26.25c-19.535 0-35.535 15.996-35.535 35.531v20.414c-15.059 4.3047-29.574 10.309-43.27 17.906l-14.414-14.414c-13.816-13.816-36.449-13.816-50.27 0l-29.762 29.762c-13.816 13.816-13.816 36.449 0 50.27l14.414 14.414c-7.5938 13.695-13.602 28.211-17.906 43.27h-20.414c-19.535 0-35.535 15.996-35.535 35.535v42.125c0 19.535 15.996 35.535 35.535 35.535h20.414c4.3047 15.059 10.309 29.574 17.906 43.27l-14.414 14.414c-13.816 13.816-13.816 36.453 0 50.27l29.762 29.762c13.816 13.816 36.449 13.816 50.27 0l14.414-14.414c13.695 7.5938 28.211 13.602 43.27 17.906v20.414c0 19.535 15.996 35.535 35.535 35.535h42.125c19.535 0 35.535-15.996 35.535-35.535v-20.414c15.059-4.3047 29.574-10.309 43.27-17.906l14.414 14.414c13.816 13.816 36.449 13.816 50.27 0l29.762-29.762c13.816-13.816 13.816-36.453 0-50.27l-14.414-14.414c7.5938-13.695 13.602-28.211 17.906-43.27h20.414c19.535 0 35.535-15.996 35.535-35.535v-42.125c0-19.535-15.996-35.535-35.535-35.535h-20.32c-4.3125-15.078-10.332-29.609-17.949-43.32l14.363-14.363c13.816-13.816 13.816-36.449 0-50.27l-29.762-29.762c-13.816-13.816-36.449-13.816-50.27 0l-14.363 14.363c-13.711-7.6133-28.242-13.633-43.32-17.949v-20.32c0-19.535-15.996-35.531-35.535-35.531zm0 17.5h42.125c10.156 0 18.035 7.8789 18.035 18.035v27.02c0 4.0117 2.7305 7.5117 6.625 8.4883 18 4.5039 35.23 11.648 51.145 21.191v-0.003906c3.4414 2.0664 7.8477 1.5234 10.688-1.3164l19.102-19.102c7.1758-7.1758 18.344-7.1758 25.52 0l29.762 29.762c7.1758 7.1758 7.1758 18.344 0 25.52l-19.102 19.102c-2.8359 2.8398-3.3789 7.2461-1.3164 10.688 9.543 15.91 16.684 33.145 21.191 51.145 0.97266 3.8945 4.4727 6.625 8.4883 6.625h27.02c10.156 0 18.035 7.8789 18.035 18.035v42.125c0 10.156-7.8789 18.035-18.035 18.035h-27.117c-4.0117 0-7.5117 2.7305-8.4883 6.625-4.4961 17.98-11.621 35.199-21.145 51.098l0.003906 0.003907c-2.0625 3.4414-1.5195 7.8438 1.3164 10.68l19.148 19.148c7.1758 7.1758 7.1758 18.344 0 25.52l-29.762 29.762c-7.1758 7.1758-18.344 7.1758-25.52 0l-19.148-19.148v0.003906c-2.8359-2.8398-7.2422-3.3828-10.684-1.3203-15.898 9.5234-33.117 16.648-51.098 21.145-3.8945 0.97266-6.6289 4.4727-6.6289 8.4883v27.113c0 10.156-7.8789 18.035-18.035 18.035h-42.125c-10.156 0-18.035-7.8789-18.035-18.035v-27.113h0.003906c0-4.0156-2.7344-7.5156-6.6289-8.4883-17.98-4.4961-35.199-11.621-51.098-21.145-3.4414-2.0625-7.8477-1.5195-10.684 1.3203l-19.148 19.148c-7.1758 7.1758-18.344 7.1758-25.52 0l-29.762-29.762c-7.1758-7.1758-7.1758-18.344 0-25.52l19.148-19.148v-0.003906c2.8359-2.8359 3.3789-7.2383 1.3203-10.68-9.5234-15.898-16.648-33.117-21.145-51.098v-0.003906c-0.97266-3.8945-4.4766-6.6289-8.4922-6.625h-27.113c-10.156 0-18.035-7.8789-18.035-18.035v-42.125c0-10.156 7.8789-18.035 18.035-18.035h27.113c4.0156 0 7.5156-2.7305 8.4883-6.625 4.4961-17.98 11.621-35.199 21.145-51.098v-0.003907c2.0625-3.4414 1.5156-7.8438-1.3203-10.684l-19.148-19.148c-7.1758-7.1758-7.1758-18.34 0-25.52l29.762-29.762c7.1758-7.1758 18.344-7.1758 25.52 0l19.148 19.148c2.8398 2.8359 7.2422 3.3828 10.684 1.3203 15.898-9.5234 33.117-16.648 51.098-21.145 3.8984-0.97266 6.6289-4.4727 6.6289-8.4883v-27.113c0-10.156 7.8789-18.035 18.035-18.035zm21.062 111.78c-68.641 0-124.47 55.832-124.47 124.47 0 68.641 55.832 124.47 124.47 124.47 68.641 0 124.47-55.832 124.47-124.47 0-68.641-55.832-124.47-124.47-124.47zm0 17.5c59.18 0 106.97 47.789 106.97 106.97s-47.789 106.97-106.97 106.97-106.97-47.789-106.97-106.97 47.789-106.97 106.97-106.97z"
    fill-rule="evenodd" />
</svg>