<?xml version="1.0" encoding="utf-8"?>
<svg width="700pt" height="700pt" version="1.1" viewBox="50 10 600 600" xmlns="http://www.w3.org/2000/svg">
  <g>
    <path d="m540.25 252.33c11.027-10.754 7.582-21.359-7.6602-23.57l-89.891-13.066c-15.242-2.2109-33.285-15.32-40.102-29.137l-40.203-81.453c-6.8164-13.809-17.965-13.809-24.785 0l-40.207 81.457c-6.8164 13.809-24.859 26.918-40.102 29.137l-89.887 13.059c-15.242 2.2188-18.688 12.824-7.6602 23.57l65.043 63.402c11.027 10.754 17.922 31.965 15.316 47.141l-15.359 89.531c-2.6055 15.176 6.418 21.734 20.055 14.57l80.406-42.273c13.629-7.1641 35.934-7.1641 49.57 0l80.398 42.273c13.637 7.1641 22.656 0.60547 20.047-14.57l-15.348-89.531c-2.6094-15.176 4.2891-36.391 15.309-47.141z" style="fill: rgb(255, 188, 46);"/>
  </g>
</svg>