<?xml version="1.0" encoding="UTF-8" standalone="no" ?>
<!DOCTYPE svg PUBLIC "-//W3C//DTD SVG 1.1//EN" "http://www.w3.org/Graphics/SVG/1.1/DTD/svg11.dtd">
<svg xmlns="http://www.w3.org/2000/svg" xmlns:xlink="http://www.w3.org/1999/xlink" version="1.1" width="700" height="700" viewBox="0 0 700 700" xml:space="preserve">
<desc>Created with Fabric.js 4.6.0</desc>
<defs>
</defs>
<g transform="matrix(1.28 0 0 1.28 350 350)" id="j4mqBfPPoxYhQd-ewc0IU"  >
<path style="stroke: none; stroke-width: 1; stroke-dasharray: none; stroke-linecap: butt; stroke-dashoffset: 0; stroke-linejoin: miter; stroke-miterlimit: 4; fill: rgb(0,0,0); fill-rule: nonzero; opacity: 1;" vector-effect="non-scaling-stroke"  transform=" translate(-350, -280)" d="M 221.27 461.46 C 264.176 461.534219 307.09000000000003 461.475625 350 461.483438 C 392.906 461.47953099999995 435.82 461.53421899999995 478.73 461.46 C 545.05 461.34281 590.74 405.097 578.207 339.84 C 561.137 250.99199999999996 544.508 162.05999999999997 527.84 73.13 C 520.6525 34.75899999999999 489.141 6.810000000000002 450.26200000000006 6.586999999999989 L 249.74200000000005 6.586999999999989 C 210.86700000000005 6.809659999999989 179.35500000000005 34.758999999999986 172.16000000000005 73.13799999999999 C 155.48800000000006 162.06 138.86300000000006 250.998 121.79300000000006 339.84799999999996 C 109.26200000000006 405.09799999999996 154.95300000000006 461.34799999999996 221.27300000000008 461.45799999999997 z M 517.61 371.78 C 517.559219 391.38899999999995 501.969 406.65099999999995 482.169 406.46 C 462.66499999999996 406.28812 447.399 390.47999999999996 447.7 370.76099999999997 C 447.99297 351.558 463.524 336.39 482.817 336.46 C 502.50100000000003 336.54203099999995 517.6610000000001 351.929 517.61 371.78 z M 289.18 47.19999999999999 L 410.81 47.19999999999999 C 420.6655 47.19999999999999 428.658 55.192199999999985 428.658 65.05199999999999 C 428.658 74.9075 420.6658 82.904 410.81 82.904 L 289.18 82.907906 C 279.3245 82.907906 271.332 74.911806 271.332 65.055906 C 271.332 55.188705999999996 279.3242 47.20090599999999 289.18 47.20090599999999 z M 197.219 262.53 C 203.0471 231.56899999999996 209.41 200.70199999999997 215.58599999999998 169.79999999999995 C 217.3438 161.01479999999995 219.1212 152.22199999999995 221.08989999999997 143.47999999999996 C 224.04299999999998 130.44899999999996 230.57819999999998 125.49999999999996 244.06989999999996 125.01099999999997 L 455.9199 125.01099999999997 C 469.4119 125.49927999999997 475.94689999999997 130.44849999999997 478.8999 143.47999999999996 C 480.8765 152.22609999999997 482.646 161.01499999999996 484.4038 169.79999999999995 C 490.5874 200.70199999999994 496.9428 231.56199999999995 502.7708 262.53 C 506.01300000000003 279.74899999999997 497.7044 296.10799999999995 480.07980000000003 296.10799999999995 L 219.90980000000002 296.10799999999995 C 202.2888 296.10799999999995 193.97580000000002 279.74899999999997 197.22180000000003 262.53 z M 217.176 336.46399999999994 C 236.469 336.3897809999999 252.00799999999998 351.56199999999995 252.29299999999998 370.76499999999993 C 252.59377999999998 390.4839999999999 237.32799999999997 406.2919999999999 217.82399999999998 406.46399999999994 C 198.023 406.6475899999999 182.433 391.39399999999995 182.38299999999998 371.78399999999993 C 182.33221899999998 351.9289999999999 197.492 336.5419999999999 217.176 336.46399999999994 z M 425.38599999999997 479.044 L 441.22999999999996 493.931 L 258.76 493.931 L 275.217 479.044 L 222.36499999999998 479.044 L 139.267 553.419 L 192.29399999999998 553.419 L 219.24699999999999 529.294 L 480.727 529.294 L 507.67999999999995 553.419 L 560.707 553.419 L 477.61699999999996 479.044 z" stroke-linecap="round" />
</g>
</svg>