<?xml version="1.0" encoding="UTF-8" standalone="no" ?>
<!DOCTYPE svg PUBLIC "-//W3C//DTD SVG 1.1//EN" "http://www.w3.org/Graphics/SVG/1.1/DTD/svg11.dtd">
<svg xmlns="http://www.w3.org/2000/svg" xmlns:xlink="http://www.w3.org/1999/xlink" version="1.1" width="700" height="700" viewBox="0 0 700 700" xml:space="preserve">
<defs>
</defs>
<g transform="matrix(1.28 0 0 1.28 350 350)" id="L0hPQM9BmbRuBHMxYTUXM"  >
<path style="stroke: none; stroke-width: 1; stroke-dasharray: none; stroke-linecap: butt; stroke-dashoffset: 0; stroke-linejoin: miter; stroke-miterlimit: 4; fill: rgb(255,255,255); fill-rule: nonzero; opacity: 1;" vector-effect="non-scaling-stroke"  transform=" translate(-350, -280)" d="M 262.45 50.164 C 272.856 39.156000000000006 286.34499999999997 32.402 301.01599999999996 30.594 L 310.36369999999994 47.524 C 310.44182499999994 47.508374 310.51994999999994 47.488843 310.60588999999993 47.481031 C 316.01998999999995 46.754471 326.96888999999993 46.508371000000004 336.35588999999993 46.426331000000005 C 336.26604699999996 46.254451 336.2269799999999 46.074771000000005 336.1332299999999 45.906801 L 327.3871299999999 30.051801 L 372.6451299999999 30.051801 L 363.8912299999999 45.906801 C 363.7974799999999 46.074771 363.7584199999999 46.254461 363.6685699999999 46.426331000000005 C 373.0552699999999 46.504456000000005 384.00056999999987 46.750551 389.4185699999999 47.481031 C 389.5045079999999 47.49275 389.5826299999999 47.508374 389.66075999999987 47.524 L 399.00845999999984 30.594 C 413.68045999999987 32.4026 427.16445999999985 39.1565 437.5744599999998 50.164 C 439.8713599999998 52.582 442.96115999999984 53.8046 446.05105999999984 53.8046 C 448.9299599999998 53.8046 451.81275999999986 52.746 454.0744599999998 50.6132 C 458.7502599999998 46.183499999999995 458.9572599999998 38.8082 454.5275899999998 34.1212 C 438.5045899999998 17.191200000000002 417.1255899999998 7.648200000000003 394.07458999999983 6.879200000000001 C 393.4066199999998 6.785450000000001 392.74258999999984 6.762010000000001 392.07458999999983 6.777640000000001 C 391.73474999999985 6.773734000000001 391.41833999999983 6.726858000000001 391.08239999999984 6.726858000000001 L 308.93439999999987 6.726858000000001 C 308.61017999999984 6.726858000000001 308.30158999999986 6.769827000000001 307.9773699999999 6.769827000000001 C 307.2937799999999 6.746390000000001 306.6179699999999 6.773734000000001 305.9461699999999 6.8752970000000015 C 282.8951699999999 7.652637000000001 261.5201699999999 17.191297000000002 245.5011699999999 34.117297 C 241.07536999999988 38.804797 241.27846999999988 46.179297 245.9542899999999 50.609297 C 250.6261899999999 55.042896999999996 258.0202899999999 54.839797 262.4502899999999 50.163987 z M 416.71 487.464 L 430.726 500.636 L 269.286 500.636 L 283.852 487.464 L 246.99699999999999 487.464 L 168.51299999999998 553.269 L 210.474 553.269 L 234.326 531.917 L 465.676 531.917 L 489.52799999999996 553.269 L 531.485 553.269 L 453.024 487.464 z M 256.30999999999995 469.218 L 443.68999999999994 469.218 C 541.221 469.218 541.862 365.688 535.6239999999999 302.558 C 532.5887999999999 271.847 528.5106999999999 241.20999999999998 526.1279 210.433 C 520.3193 135.773 460.89789999999994 72.88299999999998 386.6079 62.942999999999984 C 378.561 61.868799999999986 357.34189999999995 61.90779999999998 350.00289999999995 61.95471999999998 C 342.6552 61.90393799999998 321.43289999999996 61.86487599999998 313.39789999999994 62.94690999999998 C 239.10089999999994 72.88830999999998 179.67789999999994 135.77490999999998 173.87789999999993 210.43690999999998 C 171.47949999999992 241.21391 167.41699999999992 271.85091 164.3817999999999 302.56191 C 158.1434999999999 365.68691 158.7762999999999 469.21191 256.31179999999995 469.21191 z M 456.4 406.16700000000003 C 439.90799999999996 406.16700000000003 426.529 392.79600000000005 426.529 376.29600000000005 C 426.529 359.80400000000003 439.908 346.43300000000005 456.4 346.43300000000005 C 472.892 346.43300000000005 486.27099999999996 359.80400000000003 486.27099999999996 376.29600000000005 C 486.27099999999996 392.80000000000007 472.89199999999994 406.16700000000003 456.4 406.16700000000003 z M 312.46999999999997 92.06700000000001 L 387.51699999999994 92.06700000000001 C 395.6146999999999 92.06700000000001 402.17699999999996 98.64120000000001 402.17699999999996 106.739 C 402.17699999999996 114.8484 395.61449999999996 121.411 387.51699999999994 121.411 L 312.4699999999999 121.411 C 304.37229999999994 121.411 297.8019999999999 114.8485 297.8019999999999 106.739 C 297.8059059999999 98.6413 304.3722999999999 92.06700000000001 312.4699999999999 92.06700000000001 z M 216.81399999999996 193.967 C 219.38819999999996 168.30700000000002 240.94299999999996 148.791 266.68899999999996 148.00600000000003 C 266.72806299999996 148.00990600000003 266.75540599999994 148.02943700000003 266.79447 148.02943700000003 L 266.79447 147.99818700000003 L 433.19447 147.99818700000003 L 433.19447 148.03334400000003 C 433.233532 148.03334400000003 433.260876 148.01771900000003 433.29994000000005 148.00990600000003 C 459.04194000000007 148.79506600000002 480.59694 168.31090600000002 483.17894000000007 193.970906 C 484.72974000000005 209.368906 484.74534000000006 225.19790600000002 483.07738000000006 240.57990600000002 C 480.32738000000006 266.03690600000004 457.89338000000004 285.520906 432.24138000000005 285.985906 L 432.24138000000005 285.997624 L 267.74138000000005 285.993718 L 267.74138000000005 285.982 C 242.08938000000006 285.51716000000005 219.65538000000004 266.02900000000005 216.90538000000004 240.57600000000002 C 215.23738000000003 225.193 215.25308000000004 209.36900000000003 216.81163000000004 193.967 z M 243.59899999999996 346.427 C 260.09099999999995 346.427 273.46999999999997 359.798 273.46999999999997 376.29 C 273.46999999999997 392.786 260.09099999999995 406.161 243.59899999999996 406.161 C 227.10699999999997 406.161 213.72799999999995 392.79 213.72799999999995 376.29 C 213.73190599999995 359.802 227.10699999999994 346.427 243.59899999999996 346.427 z" stroke-linecap="round" />
</g>
</svg>